# xmcd CD database file
#
# Track frame offsets:
#	182
#	10737
#	20787
#	32242
#	41482
#	51412
#	59702
#	69327
#	80357
#
# Disc length: 1338 seconds
#
# Revision: 1
# Processed by: cddbd v1.5.2PL0 Copyright (c) Steve Scherf et al.
# Submitted via: jetAudio 7
#
DISCID=77053809
DTITLE=Danny Davis and The Nashville Brass - Best Of Danny Davis and The Na
DTITLE=shvilleBrass
DYEAR=1900
DGENRE=Country
TTITLE0=Make The World Go Away
TTITLE1=Green, Green Grass Of Home
TTITLE2=Sweet Dreams
TTITLE3=San Antonio Rose
TTITLE4=I Fall To Pieces
TTITLE5=Wabash Cannon Ball
TTITLE6=Nashville Brass Hoedown
TTITLE7=Mountain Minuet
TTITLE8=I Don't Know Why (I Just Do) - You're Nobody (Until Somebody Lov
TTITLE8=es You)
EXTD=
EXTT0=
EXTT1=
EXTT2=
EXTT3=
EXTT4=
EXTT5=
EXTT6=
EXTT7=
EXTT8=
PLAYORDER=
